<svg width="1025" height="1025" xmlns="http://www.w3.org/2000/svg">
    <rect width="100%" height="100%" fill="#CDCDD6" />
    <path d="M220.564 283.562h54.504v27.091c12.521-16.004 29.041-30.647 56.609-30.647 25.042 0 44.087 11.087 54.083 30.228 16.835-19.559 36.932-30.228 63.026-30.228 40.51 0 64.921 24.266 64.921 70.184v124.365h-54.504V368.076c0-25.626-11.469-38.805-31.882-38.805-20.412 0-32.933 13.179-32.933 38.805v106.479h-54.399V368.076c0-25.626-11.469-38.805-31.882-38.805-20.412 0-32.933 13.179-32.933 38.805v106.479H220.67V283.562h-.106ZM673.536 283.562h56.608L656.28 479.158c-14.731 38.805-30.514 53.448-63.027 53.448-19.676 0-34.407-5.02-48.401-13.179l18.308-39.223c7.155 4.288 16.099 7.531 23.254 7.531 9.365 0 14.31-2.825 19.045-12.447l-75.233-191.621h57.661l43.772 130.013 41.877-130.118ZM617.98 672.87c0-53.449-43.772-96.961-97.539-96.961-12.626 0-24.937 2.511-36.511 7.113-11.259-6.799-25.989-5.439-35.775 4.184l-10.312 10.146 6.84 6.799-18.834 18.618c-1.684 1.569-1.684 4.288 0 5.857 1.578 1.674 4.208 1.674 5.892 0l18.834-18.618 7.892 7.949 7.891 7.95-18.834 18.618c-1.684 1.569-1.684 4.288 0 5.857 1.578 1.674 4.314 1.674 5.892 0l18.835-18.618 6.733 6.799 10.207-10.146c8.628-8.473 10.732-20.919 6.523-31.484 7.892-2.51 16.099-3.87 24.622-3.87 44.298 0 80.388 35.877 80.388 79.912 0 16.84-5.156 32.739-14.941 46.336-14.521 19.664-37.879 32.32-64.29 32.32-32.828 0-60.922-19.664-73.233-47.696l-2.735-4.811-20.623-35.876-2.315-3.975-22.097-36.818-.105-.105c-17.045-27.822-47.77-46.441-82.913-46.441-33.144 0-62.396 16.527-79.862 41.734v-94.659h-17.151v153.338h.105c2.21 51.357 44.719 92.254 96.908 92.254 39.352 0 73.233-23.325 88.385-56.796l-11.048-19.768c-8.839 34.203-40.089 59.515-77.337 59.515-37.774 0-69.445-26.044-77.652-61.084-1.368-5.858-2.21-12.029-2.21-18.305 0-2.719.105-5.439.421-8.158 4.103-40.061 38.089-71.231 79.441-71.231 28.304 0 53.136 14.644 67.341 36.818l.21.314a80.424 80.424 0 0 1 4.104 7.217l5.577 9.833 19.36 34.307 6.944 12.342 17.046 27.823c16.94 28.241 47.875 47.278 83.439 47.278 30.619 0 57.871-14.121 75.653-36.191l.211.105c13.468-17.258 20.623-37.864 20.623-59.725ZM727.198 655.298l61.028-64.222c3.683-3.87 3.472-9.937-.421-13.598-3.893-3.661-9.996-3.451-13.679.419l-60.291 63.49 13.363 13.911ZM727.303 683.435l-13.362 14.016 69.129 72.694a9.844 9.844 0 0 0 7.05 3.033c2.42 0 4.735-.836 6.629-2.615 3.893-3.66 4.103-9.727.421-13.597l-69.867-73.531Z" fill="#393C3C"/>
    <path d="m713.941 669.419-88.596-92.882c-3.682-2.51-8.733-2.197-12.1.941-3.893 3.661-4.103 9.728-.421 13.598l74.391 78.238-83.229 87.547c-3.683 3.87-3.472 9.937.421 13.598a9.693 9.693 0 0 0 6.629 2.615 9.605 9.605 0 0 0 5.471-1.674l97.434-101.981Z" fill="#393C3C"/>
</svg>